<svg viewBox="0 0 100 23" fill="none" xmlns="http://www.w3.org/2000/svg">
    <path d="M75.7086 18.4062H75.8341C76.1323 18.4062 76.3747 18.6553 76.3747 18.9618V19.7963C76.3747 20.1028 76.1323 20.3518 75.8341 20.3518H75.7086C75.4103 20.3518 75.168 20.1028 75.168 19.7963V18.9618C75.168 18.6553 75.4103 18.4062 75.7086 18.4062Z" fill="white"/>
    <path fill-rule="evenodd" clip-rule="evenodd" d="M54.8398 19.7998H55.5392L55.1916 18.7969L54.8398 19.7998Z" fill="white"/>
    <path d="M44.4264 18.4062H44.3003C44.0018 18.4062 43.7598 18.655 43.7598 18.9618V19.7963C43.7598 20.1031 44.0018 20.3518 44.3003 20.3518H44.4264C44.7249 20.3518 44.967 20.1031 44.967 19.7963V18.9618C44.967 18.655 44.7249 18.4062 44.4264 18.4062Z" fill="white"/>
    <path d="M65.5162 18.4062H65.3902C65.0916 18.4062 64.8496 18.655 64.8496 18.9618V19.7963C64.8496 20.1031 65.0916 20.3518 65.3902 20.3518H65.5162C65.8148 20.3518 66.0568 20.1031 66.0568 19.7963V18.9618C66.0568 18.655 65.8148 18.4062 65.5162 18.4062Z" fill="white"/>
    <path fill-rule="evenodd" clip-rule="evenodd" d="M98.3645 15.9453L26.2132 15.9453C25.3103 15.9453 24.5781 16.6958 24.5781 17.6219V21.0837C24.5781 22.0097 25.3103 22.7603 26.2132 22.7603L98.364 22.7603C99.267 22.7603 99.9992 22.0097 99.9992 21.0837V17.6219C99.9992 16.6958 99.267 15.9453 98.364 15.9453H98.3645ZM34.4692 21.1876C33.5782 21.1876 32.8608 20.4162 32.8608 19.3525C32.8608 18.2889 33.5602 17.5175 34.5047 17.5175C35.1418 17.5175 35.5383 17.8302 35.8144 18.2638L35.182 18.8184C35.0038 18.5664 34.7946 18.4099 34.496 18.4099C34.0592 18.4099 33.7518 18.8283 33.7518 19.3525C33.7518 19.8768 34.0592 20.2952 34.496 20.2952C34.821 20.2952 35.0125 20.1239 35.2 19.8668L35.8504 20.391C35.5563 20.8498 35.1598 21.1876 34.4692 21.1876ZM40.7701 18.5157H39.8343V21.1876H38.9702V18.5157H38.0344V17.6589H40.7696V18.5157H40.7701ZM45.7715 19.8047C45.7715 20.1856 45.6205 20.5319 45.3768 20.7824H45.3735C45.1303 21.0324 44.7942 21.188 44.4253 21.188H44.2998C43.9314 21.188 43.5953 21.0324 43.3516 20.7824L43.3483 20.7791C43.105 20.5286 42.9536 20.1837 42.9536 19.8047V18.9702C42.9536 18.5911 43.105 18.2462 43.3483 17.9957V17.9924C43.5921 17.7419 43.9286 17.5868 44.2998 17.5868H44.4253C44.7965 17.5868 45.133 17.7419 45.3768 17.9924C45.6205 18.2429 45.7715 18.5887 45.7715 18.9702V19.8047ZM51.27 21.1876H50.41V19.1614L49.8066 20.4276H49.4009L48.8021 19.1718V21.188H47.9555V17.6594H48.8686L49.6128 19.2463L50.3569 17.6594H51.27V21.188V21.1876ZM56.0157 21.1876L55.7886 20.5576H54.5855L54.3626 21.1876H53.4536L54.7813 17.6337H55.6145L56.9422 21.1876H56.0157ZM61.8619 18.5157H60.9261V21.1876H60.0619V18.5157H59.1262V17.6589H61.8614V18.5157H61.8619ZM66.8633 19.8047C66.8633 20.1856 66.7123 20.5319 66.4686 20.7824H66.4653C66.222 21.0324 65.886 21.188 65.5171 21.188H65.3916C65.0232 21.188 64.6871 21.0324 64.4438 20.7824L64.4406 20.7791C64.1973 20.5286 64.0459 20.1837 64.0459 19.8047V18.9702C64.0459 18.5911 64.1973 18.2462 64.4406 17.9957V17.9924C64.6843 17.7419 65.0209 17.5868 65.392 17.5868H65.5176C65.8887 17.5868 66.2253 17.7419 66.469 17.9924C66.7128 18.2429 66.8637 18.5887 66.8637 18.9702V19.8047H66.8633ZM72.179 21.1373H71.3148V18.4654H70.5887V18.6015C70.5887 20.754 70.17 21.1876 69.5638 21.1876C69.3367 21.1876 69.1137 21.1321 69.0473 21.1069L69.105 20.3559C69.1451 20.3659 69.2652 20.3763 69.3053 20.3763C69.5504 20.3763 69.7822 20.2354 69.7822 18.0977V17.6086H72.179V21.1373ZM77.1804 19.8047C77.1804 20.1856 77.0294 20.5319 76.7857 20.7824H76.7825C76.5392 21.0324 76.2031 21.188 75.8343 21.188H75.7087C75.3403 21.188 75.0042 21.0324 74.7605 20.7824L74.7573 20.7791C74.514 20.5286 74.3626 20.1837 74.3626 19.8047V18.9702C74.3626 18.5911 74.514 18.2462 74.7573 17.9957V17.9924C75.001 17.7419 75.3375 17.5868 75.7082 17.5868H75.8338C76.205 17.5868 76.5415 17.7419 76.7852 17.9924C77.029 18.2429 77.1799 18.5887 77.1799 18.9702V19.8047H77.1804ZM81.6103 18.5157H80.2291V21.1876H79.3649V17.6589H81.6103V18.5157ZM86.6629 21.1876H85.8075V19.2017L84.6003 21.1876H83.7938V17.6589H84.6492V19.6453L85.8564 17.6589H86.6629V21.1876ZM91.7169 21.1876H90.8527V20.1187H90.4742L89.8459 21.1876H88.8478L89.592 19.9574C89.2042 19.771 88.9503 19.4128 88.9503 18.8634C88.9503 18.0365 89.5338 17.6584 90.2425 17.6584H91.7169V21.1871V21.1876Z" fill="white"/>
    <path fill-rule="evenodd" clip-rule="evenodd" d="M89.8184 18.9358C89.8184 19.1929 89.9878 19.3694 90.2818 19.3694H90.852V18.4922H90.2865C89.997 18.4922 89.8188 18.6483 89.8188 18.9358H89.8184Z" fill="white"/>
    <path fill-rule="evenodd" clip-rule="evenodd" d="M65.4473 5.28906H69.5295V6.86601H65.4473V5.28906Z" fill="white"/>
    <path fill-rule="evenodd" clip-rule="evenodd" d="M73.1695 8.53388C73.2157 7.90196 74.9884 2.50172 75.2585 2.13642C75.5751 2.3798 77.1244 7.74588 77.3801 8.53008L73.1695 8.53388ZM71.8502 10.0221L78.634 10.051L78.6381 12.109L80.2912 12.0967L80.2723 8.53957L79.2881 8.52771C78.5716 6.70834 77.8787 4.71343 77.2347 2.80202C76.8673 1.71135 76.612 -0.0178879 75.2594 0.000139832C73.7397 0.0200652 73.6884 1.57377 73.254 2.78067L71.166 8.53198L70.2949 8.5353L70.3051 12.1043L71.8063 12.1L71.8502 10.0221Z" fill="white"/>
    <path fill-rule="evenodd" clip-rule="evenodd" d="M24.4668 0.0859375V3.06572C24.4668 4.23847 24.4908 5.12088 24.6247 5.38039C24.9344 5.98242 25.9228 6.05358 26.9629 6.0569C27.7703 6.05927 28.6132 6.04314 29.1681 6.0569L29.1464 8.53096L24.597 8.53238L24.5813 10.0263C25.7534 10.0263 27.3964 10.023 28.5712 10.023C30.2234 10.023 30.8513 10.0828 30.8494 8.24584C30.8466 5.56588 30.9214 2.79151 30.8448 0.0868873L29.1723 0.0868873L29.1589 4.54305L26.1449 4.51601L26.1328 0.0864124L24.4668 0.0864124V0.0859375Z" fill="white"/>
    <path fill-rule="evenodd" clip-rule="evenodd" d="M53.3868 4.43481H55.768C56.0177 4.43481 55.9692 4.4016 55.9697 4.66632C55.9729 5.80681 55.9697 7.40701 55.9697 8.49294C55.9697 8.70832 56.0034 8.67368 55.7934 8.67368H53.3868V4.43528V4.43481ZM53.4104 10.0471C54.1841 9.98259 56.0713 10.1434 56.6492 9.96077C57.7119 9.62536 57.4917 8.59873 57.4922 7.42361C57.4936 3.48456 57.9386 2.94562 55.2786 2.94468C51.6599 2.94373 51.8597 2.52435 51.8593 6.18871C51.8593 8.22157 51.8593 10.8498 51.8593 12.8722L53.3859 12.8789L53.4099 10.0471H53.4104Z" fill="white"/>
    <path fill-rule="evenodd" clip-rule="evenodd" d="M82.6669 5.91755L82.6831 4.43074H84.9354C85.0961 4.43074 85.0785 4.39849 85.0785 4.55646V5.75293C85.0785 5.95171 85.1085 5.91755 84.9142 5.91755C84.2568 5.91755 83.1974 5.91755 82.6665 5.91755H82.6669ZM81.0092 4.83969L81.0078 8.34797C81.0115 9.87938 81.4588 10.0269 82.8885 10.0231C84.0408 10.0198 85.2549 10.063 86.3988 10.0094L86.4104 8.6701H82.6669C82.6669 8.30859 82.6651 7.64442 82.6669 7.26252C85.2687 7.19136 86.5489 7.63208 86.5895 5.9797C86.6176 4.83589 86.7829 3.53078 85.9801 3.10998C85.4326 2.82296 83.4393 2.9335 82.6873 2.94204C81.2539 2.95864 81.0092 3.41218 81.0087 4.84016L81.0092 4.83969Z" fill="white"/>
    <path fill-rule="evenodd" clip-rule="evenodd" d="M60.618 7.11369C61.2255 7.11464 62.0311 7.11796 62.6225 7.11369C62.6201 7.59379 62.6201 8.27079 62.6201 8.62944H60.6471C60.2113 8.60667 60.2173 8.60335 60.2021 8.15265C60.1952 7.95198 60.2002 7.67445 60.2122 7.44009C60.2321 7.04727 60.2312 7.11321 60.6185 7.11369H60.618ZM59.0415 4.43421H62.6201V5.65013C61.7444 5.65582 61.0695 5.65013 60.5423 5.65013C58.8213 5.65013 58.717 5.80574 58.711 8.24849C58.7078 9.55597 58.8569 10.0199 60.1975 10.0285C62.2827 10.0413 63.9113 10.4208 64.1412 9.10812L64.1689 4.22689C64.0854 2.95024 63.5337 2.93032 62.2056 2.93032C61.4707 2.9289 59.668 2.93032 59.0323 2.93032L59.042 4.43421H59.0415Z" fill="white"/>
    <path fill-rule="evenodd" clip-rule="evenodd" d="M89.4236 7.11328L91.8089 7.11613L91.8191 10.0138L93.3586 10.0214L93.3595 2.9375L91.808 2.9375L91.8075 5.68151L89.4121 5.68008L89.4116 2.9375L87.867 2.94224L87.8633 10.0238L89.4181 9.99629L89.4222 7.93117L89.4236 7.11328Z" fill="white"/>
    <path fill-rule="evenodd" clip-rule="evenodd" d="M43.4097 7.84055V8.5109C43.4097 8.62049 43.3224 8.70968 43.2162 8.70968H42.1997C42.1591 8.70968 42.1185 8.70968 42.0783 8.70968H41.1393C41.0327 8.70968 40.9459 8.62002 40.9459 8.5109V7.27458C40.9459 7.16499 41.0327 7.0758 41.1393 7.0758H43.2158C43.3224 7.0758 43.4092 7.16499 43.4092 7.27458V7.84055H43.4097ZM39.3934 2.94557C39.3934 4.02865 39.3916 7.00085 39.3934 8.24049C39.3943 8.99718 39.3851 9.81032 40.3245 9.98205C40.9297 10.0926 42.1563 10.02 42.8266 10.0205C43.6659 10.021 44.542 10.1301 44.8301 9.3767C44.982 8.97867 44.976 7.40836 44.9294 6.89742C44.8315 5.8243 44.1954 5.6426 43.1202 5.6426C42.5201 5.6426 41.7879 5.64924 40.9477 5.63691L40.9468 2.9375L39.3939 2.94604L39.3934 2.94557Z" fill="white"/>
    <path fill-rule="evenodd" clip-rule="evenodd" d="M33.4222 10.032C33.4753 9.81665 35.1395 4.93779 35.1972 4.8671L37.2054 10.0254L38.7145 10.0216L37.3415 6.04839L36.6103 4.11706C36.3453 3.42726 36.1741 2.89639 35.2988 2.86792C34.6183 2.84563 34.1733 3.3319 33.9037 4.08717L33.1928 6.07923L31.8379 10.0316H33.4227L33.4222 10.032Z" fill="white"/>
    <path fill-rule="evenodd" clip-rule="evenodd" d="M45.0757 4.39348L47.1845 4.39679L47.1942 10.0295H48.8155L48.8302 4.3949L50.9399 4.38731L50.9016 2.9375L45.0684 2.93892L45.0757 4.39348Z" fill="white"/>
    <path fill-rule="evenodd" clip-rule="evenodd" d="M94.2617 4.3911L96.3756 4.39253L96.3742 10.0281H97.9027L97.9059 4.39394L99.9999 4.39253V2.9375L94.2617 2.94224V4.3911Z" fill="white"/>
    <path fill-rule="evenodd" clip-rule="evenodd" d="M19.3345 2.07029C17.3089 -0.146163 14.0488 0.874777 12.5831 1.35061C11.3667 1.74532 10.4268 2.10208 9.79848 2.42278C9.30268 2.67612 8.02071 3.47977 8.02071 3.47977C8.02071 3.47977 8.69932 2.5689 9.72461 1.7809C10.9817 0.815472 11.7697 0.45065 11.7697 0.45065C11.7697 0.45065 5.39814 -0.961675 2.35687 1.30317C-0.684862 3.56802 -0.381566 7.49568 1.02458 12.5387C2.43073 17.5817 4.05201 20.3266 4.80632 20.7683C5.56064 21.2095 5.90456 21.0824 6.62887 20.3233C7.35318 19.5638 8.0004 17.5385 8.98092 17.3431C9.96144 17.1476 11.0587 17.8649 11.7134 19.7939C12.3675 21.7228 12.632 21.9643 13.2492 22.4928C13.8664 23.0213 16.3163 23.584 18.1384 16.6376C19.9605 9.69126 21.5352 4.47746 19.335 2.06982L19.3345 2.07029ZM12.9413 5.50742C14.3992 5.50742 15.7116 7.29595 14.3535 8.43549C13.3965 9.23867 11.3934 8.6893 11.3934 6.75702C11.3934 6.00745 12.1851 5.50742 12.9408 5.50742H12.9413ZM5.64604 3.57608H6.19862C7.76358 3.57608 8.15735 6.23516 5.89302 6.79307C5.0413 7.00276 3.98784 6.61327 3.98784 5.16631C3.98784 4.39539 4.93697 3.57608 5.64604 3.57608ZM8.0581 9.23582C4.9522 9.77144 5.31043 13.4453 6.2134 15.8292C6.33296 16.1442 6.45945 16.2647 6.513 16.6058C6.52269 16.668 6.45853 16.714 6.40451 16.6846C5.29935 16.0712 4.81002 15.6243 4.01231 14.684C2.58954 13.006 1.56562 10.0627 1.85461 7.8624C1.98294 6.887 2.0882 5.54157 2.54891 4.59702C2.56507 4.56428 2.57892 4.53676 2.59138 4.51257C2.63108 4.43571 2.74511 4.47794 2.72849 4.56286C2.66848 4.87075 2.57938 5.14402 2.60015 5.46567C2.84067 9.15897 5.30535 7.55261 7.30378 7.55261C8.34986 7.55261 9.64198 8.20398 9.8271 9.12291C9.83864 9.18032 9.78509 9.22776 9.73108 9.20973C9.2519 9.04795 8.48835 9.16229 8.0581 9.23677V9.23582ZM14.7883 16.7202C14.3271 17.28 13.1887 18.3702 12.41 18.6448C12.3523 18.6652 12.2959 18.6102 12.3149 18.5509C12.4672 18.067 12.8684 17.3673 13.0992 16.2339C13.4413 14.5549 13.3531 12.311 11.6741 11.4675C10.5057 10.8801 9.65168 11.1396 9.06447 11.1823C9.01323 11.1861 8.97399 11.1354 8.98923 11.0851C9.20112 10.382 9.92035 9.82267 10.6664 9.64382C12.7968 9.13382 14.8908 10.7473 15.8584 9.07262C16.4645 8.02322 16.1474 6.85806 16.1474 6.30253C16.1622 6.32435 16.1783 6.35567 16.1866 6.3718C16.1875 6.37369 16.1885 6.37512 16.1894 6.37701L16.4922 7.07867C16.4932 7.08104 16.4941 7.08341 16.495 7.08626C16.5726 7.332 16.6584 7.65935 16.7392 7.9663C17.5365 10.9897 16.6524 14.4572 14.7888 16.7202H14.7883ZM19.1596 6.54685C19.1236 6.61659 19.0211 6.59145 19.0202 6.51222C19.0082 4.83327 18.841 3.59885 17.2941 2.85165C16.3694 2.40475 14.8077 2.47734 13.6688 2.734C13.3402 2.808 13.1597 2.89862 12.9228 2.95745C12.8407 2.97785 12.794 2.86351 12.867 2.81892C14.6374 1.72682 18.9121 0.980094 19.4232 3.95798C19.5077 4.45042 19.5072 5.08803 19.4204 5.57763C19.3576 5.93249 19.299 6.27549 19.1591 6.54685H19.1596Z" fill="white"/>
</svg>
